<svg xmlns="http://www.w3.org/2000/svg" viewBox="0 0 1000 500.5"><defs><style>.cls-1,.cls-2,.cls-3{fill:#b02222;}.cls-2{font-size:200px;}.cls-2,.cls-3{font-family:TimesNewRomanPSMT, Times New Roman;}.cls-3{font-size:130px;}</style></defs><g id="Base"><g id="Rouge"><polygon class="cls-1" points="676 238 676 0.5 651 0.5 651 238 0 238 0 263 651 263 651 500.5 676 500.5 676 263 1000 263 1000 238 676 238"/><path class="cls-1" d="M950,422A116,116,0,1,0,834,306,116,116,0,0,0,950,422Zm.5-217A100.5,100.5,0,1,1,850,305.5,100.51,100.51,0,0,1,950.5,205Z" transform="translate(-149 -190)"/></g></g><g id="YHWH-Bas"><text id="YHWH-rouge" class="cls-2" transform="translate(10.54 422.22)">YHWH</text></g><g id="Ardecho"><text id="ARDECHO-Rouge" class="cls-3" transform="translate(9.35 226.58)">ARDECHO</text></g></svg>