<svg xmlns="http://www.w3.org/2000/svg" viewBox="0 0 9600 9600"><defs><style>.cls-1{fill:none;stroke:#1c2747;stroke-miterlimit:10;stroke-width:400px;}.cls-2{font-size:1200px;}.cls-2,.cls-7{fill:#1c2747;font-family:TimesNewRomanPSMT, Times New Roman;}.cls-3,.cls-4{fill:#b22223;}.cls-4{font-size:300px;font-family:LinuxLibertineG, Linux Libertine G;}.cls-5{letter-spacing:0.02em;}.cls-6{letter-spacing:0.03em;}.cls-7{font-size:1000px;}</style></defs><g id="Cercle"><circle id="Cercle_Bleu" data-name="Cercle Bleu" class="cls-1" cx="4800" cy="4800" r="4600"/></g><g id="Croix"><g id="Bleu"><line id="Horizontal" class="cls-1" x1="792.97" y1="7261.28" x2="8807.03" y2="7261.28"/><line id="Vertical" class="cls-1" x1="6458.18" y1="638.84" x2="6434.02" y2="8961.16"/></g></g><g id="YHWH-bas"><text id="YHWH-Bleu" class="cls-2" transform="translate(2418.59 8425.39)">YHWH</text></g><g id="Ecus"><g id="Rouge"><path class="cls-3" d="M4840.79,456.38c31,56.06,78.14,82.74,98,92.52h.69a214.45,214.45,0,0,0,124.64-178.33l-1.66-119.47H4938.28l-124.17.16V368.91A221.79,221.79,0,0,0,4840.79,456.38Z" transform="translate(-139.11 -200)"/><path class="cls-3" d="M8386,2149.09c31,56,78.15,82.74,98,92.52h.69a214.49,214.49,0,0,0,124.64-178.33l-1.65-119.48H8483.46l-124.17.17v117.65A222.13,222.13,0,0,0,8386,2149.09Z" transform="translate(-139.11 -200)"/><path class="cls-3" d="M8511,7886.18c31,56,78.15,82.73,98,92.51h.69a214.45,214.45,0,0,0,124.64-178.33l-1.65-119.47H8608.46l-124.17.17V7798.7A222.17,222.17,0,0,0,8511,7886.18Z" transform="translate(-139.11 -200)"/><path class="cls-3" d="M4840.79,9656.38c31,56.06,78.14,82.74,98,92.52h.69a214.45,214.45,0,0,0,124.64-178.33l-1.66-119.47H4938.28l-124.17.16v117.65A221.79,221.79,0,0,0,4840.79,9656.38Z" transform="translate(-139.11 -200)"/><path class="cls-3" d="M9440.79,5091.21c31,56.05,78.14,82.73,98,92.51h.69a214.45,214.45,0,0,0,124.64-178.33l-1.66-119.47H9538.28l-124.17.17v117.64A221.83,221.83,0,0,0,9440.79,5091.21Z" transform="translate(-139.11 -200)"/><path class="cls-3" d="M240.79,5034c31,56.05,78.14,82.74,98,92.52h.69a214.49,214.49,0,0,0,124.64-178.33l-1.66-119.48H338.28l-124.17.17v117.65A221.79,221.79,0,0,0,240.79,5034Z" transform="translate(-139.11 -200)"/><path class="cls-3" d="M1500.79,1952c31,56.06,78.15,82.74,98,92.52h.68a214.44,214.44,0,0,0,124.65-178.33l-1.66-119.47H1598.29l-124.17.16V1864.5A221.91,221.91,0,0,0,1500.79,1952Z" transform="translate(-139.11 -200)"/><path class="cls-3" d="M1168.63,7889.55c31,56.05,78.14,82.73,98,92.51h.69A214.45,214.45,0,0,0,1392,7803.73l-1.66-119.47H1266.12l-124.17.17v117.64A221.83,221.83,0,0,0,1168.63,7889.55Z" transform="translate(-139.11 -200)"/></g></g><g id="Devise_-Ardecho" data-name="Devise -Ardecho"><text id="Devise-Rouge" class="cls-4" transform="translate(1883.04 7350.49)">ARDÉCHOIS, CŒ<tspan class="cls-5" x="2212.5" y="0">U</tspan><tspan x="2417.87" y="0">R </tspan><tspan class="cls-6" x="2668.95" y="0">F</tspan><tspan class="cls-5" x="2820.56" y="0">I</tspan><tspan x="2916.8" y="0">DÈLE</tspan></text></g><g id="Ardecho"><text id="ARDECHO_-Bleu" data-name="ARDECHO -Bleu" class="cls-7" transform="translate(1069.83 6768.46)">ARDECHO</text></g></svg>