<svg xmlns="http://www.w3.org/2000/svg" viewBox="0 0 1000 500.5"><defs><style>.cls-1{font-size:200px;}.cls-1,.cls-2{font-family:TimesNewRomanPSMT, Times New Roman;}.cls-2{font-size:90px;}.cls-3{letter-spacing:-0.06em;}.cls-4{font-size:25px;font-family:LinuxLibertineG, Linux Libertine G;}.cls-4,.cls-5{fill:#b22222;}</style></defs><g id="Base"><g id="Noir"><polygon points="676 238 676 0.5 651 0.5 651 238 0 238 0 263 651 263 651 500.5 676 500.5 676 263 1000 263 1000 238 676 238"/><path d="M950,422A116,116,0,1,0,834,306,116,116,0,0,0,950,422Zm.5-217A100.5,100.5,0,1,1,850,305.5,100.51,100.51,0,0,1,950.5,205Z" transform="translate(-149 -190)"/></g></g><g id="YHWH-Haut"><text id="YHWH-noir" class="cls-1" transform="translate(15.54 232.22)">YHWH</text></g><g id="Consortium-Bas"><text id="CONSORTIUM-noir" class="cls-2" transform="translate(33 335.55)">CONSO<tspan class="cls-3" x="305.07" y="0">R</tspan><tspan x="359.69" y="0">TIUM</tspan></text></g><g id="Devise_-_YHW" data-name="Devise - YHW"><text id="Devise-Rouge" class="cls-4" transform="translate(173 257.88)">AD MAJOREM DEI GLORIAM</text></g><g id="Ecus"><g id="Rouge"><path class="cls-5" d="M946.21,200.42c2.81,4,4.22,4.81,7.23,1.06,2.48-3.43,1.51-5.95,1.64-9.27h-9.93C945.25,194.82,944.68,197.82,946.21,200.42Z" transform="translate(-149 -190)"/><path class="cls-5" d="M1054.36,307.84c2.8,4,4.22,4.81,7.23,1.07,2.47-3.43,1.51-6,1.64-9.28h-9.94C1053.39,302.25,1052.82,305.24,1054.36,307.84Z" transform="translate(-149 -190)"/><path class="cls-5" d="M838.36,307.84c2.8,4,4.22,4.81,7.23,1.07,2.47-3.43,1.51-6,1.64-9.28h-9.94C837.39,302.25,836.82,305.24,838.36,307.84Z" transform="translate(-149 -190)"/><path class="cls-5" d="M946.36,416.84c2.8,4,4.22,4.81,7.23,1.07,2.47-3.43,1.51-6,1.64-9.28h-9.94C945.39,411.25,944.82,414.24,946.36,416.84Z" transform="translate(-149 -190)"/><path class="cls-5" d="M869.36,233.84c2.8,4,4.22,4.81,7.23,1.07,2.47-3.43,1.51-6,1.64-9.28h-9.94C868.39,228.25,867.82,231.24,869.36,233.84Z" transform="translate(-149 -190)"/><path class="cls-5" d="M864.36,379.84c2.8,4,4.22,4.81,7.23,1.07,2.47-3.43,1.51-6,1.64-9.28h-9.94C863.39,374.25,862.82,377.24,864.36,379.84Z" transform="translate(-149 -190)"/><path class="cls-5" d="M1023.36,385.84c2.8,4,4.22,4.81,7.23,1.07,2.47-3.43,1.51-6,1.64-9.28h-9.94C1022.39,380.25,1021.82,383.24,1023.36,385.84Z" transform="translate(-149 -190)"/><path class="cls-5" d="M1023.36,233.84c2.8,4,4.22,4.81,7.23,1.07,2.47-3.43,1.51-6,1.64-9.28h-9.94C1022.39,228.25,1021.82,231.24,1023.36,233.84Z" transform="translate(-149 -190)"/></g></g></svg>