<svg xmlns="http://www.w3.org/2000/svg" viewBox="0 0 9600 9600"><defs><style>.cls-1{fill:none;stroke:#f9ba0c;stroke-miterlimit:10;stroke-width:400px;}.cls-2{font-size:1200px;}.cls-2,.cls-3{fill:#f9ba0c;font-family:TimesNewRomanPSMT, Times New Roman;}.cls-3{font-size:800px;}.cls-4{letter-spacing:-0.02em;}.cls-5,.cls-6{fill:#1d1d1b;}.cls-6{font-size:300px;font-family:LinuxLibertineG, Linux Libertine G;}.cls-7{letter-spacing:0em;}.cls-8{letter-spacing:-0.01em;}</style></defs><g id="Cercle"><circle id="Cercle_Jaune" data-name="Cercle Jaune" class="cls-1" cx="4800" cy="4800" r="4600"/></g><g id="Croix"><g id="Jaune"><line id="Horizontal" class="cls-1" x1="792.97" y1="7261.28" x2="8807.03" y2="7261.28"/><line id="Vertical" class="cls-1" x1="6458.18" y1="638.84" x2="6434.02" y2="8961.16"/></g></g><g id="YHWH-bas"><text id="YHWH-Jaune" class="cls-2" transform="translate(2418.59 8425.39)">YHWH</text></g><g id="Héphaïstos"><text id="HÉPHAÏSTOS-Jaune" class="cls-3" transform="translate(1239.24 6924.22)">HÉPHAÏS<tspan class="cls-4" x="3378.13" y="0">T</tspan><tspan x="3852.34" y="0">OS</tspan></text></g><g id="Ecus"><g id="Noir"><path class="cls-5" d="M4840.79,456.38c31,56.06,78.14,82.74,98,92.52h.69a214.45,214.45,0,0,0,124.64-178.33l-1.66-119.47H4938.28l-124.17.16V368.91A221.79,221.79,0,0,0,4840.79,456.38Z" transform="translate(-139.11 -200)"/><path class="cls-5" d="M8386,2149.09c31,56,78.15,82.74,98,92.52h.69a214.49,214.49,0,0,0,124.64-178.33l-1.65-119.48H8483.46l-124.17.17v117.65A222.13,222.13,0,0,0,8386,2149.09Z" transform="translate(-139.11 -200)"/><path class="cls-5" d="M8511,7886.18c31,56,78.15,82.73,98,92.51h.69a214.45,214.45,0,0,0,124.64-178.33l-1.65-119.47H8608.46l-124.17.17V7798.7A222.17,222.17,0,0,0,8511,7886.18Z" transform="translate(-139.11 -200)"/><path class="cls-5" d="M4840.79,9656.38c31,56.06,78.14,82.74,98,92.52h.69a214.45,214.45,0,0,0,124.64-178.33l-1.66-119.47H4938.28l-124.17.16v117.65A221.79,221.79,0,0,0,4840.79,9656.38Z" transform="translate(-139.11 -200)"/><path class="cls-5" d="M9440.79,5091.21c31,56.05,78.14,82.73,98,92.51h.69a214.45,214.45,0,0,0,124.64-178.33l-1.66-119.47H9538.28l-124.17.17v117.64A221.83,221.83,0,0,0,9440.79,5091.21Z" transform="translate(-139.11 -200)"/><path class="cls-5" d="M240.79,5034c31,56.05,78.14,82.74,98,92.52h.69a214.49,214.49,0,0,0,124.64-178.33l-1.66-119.48H338.28l-124.17.17v117.65A221.79,221.79,0,0,0,240.79,5034Z" transform="translate(-139.11 -200)"/><path class="cls-5" d="M1500.79,1952c31,56.06,78.15,82.74,98,92.52h.68a214.44,214.44,0,0,0,124.65-178.33l-1.66-119.47H1598.29l-124.17.16V1864.5A221.91,221.91,0,0,0,1500.79,1952Z" transform="translate(-139.11 -200)"/><path class="cls-5" d="M1168.63,7889.55c31,56.05,78.14,82.73,98,92.51h.69A214.45,214.45,0,0,0,1392,7803.73l-1.66-119.47H1266.12l-124.17.17v117.64A221.83,221.83,0,0,0,1168.63,7889.55Z" transform="translate(-139.11 -200)"/></g></g><g id="Devise_-Hephaistos" data-name="Devise -Hephaistos"><text id="Devise-Noir" class="cls-6" transform="translate(1883.04 7350.49)">La<tspan class="cls-7" x="294.73" y="0">b</tspan><tspan x="443.99" y="0">or omnia vincit imp</tspan><tspan class="cls-8" x="2871.53" y="0">r</tspan><tspan x="2980.66" y="0">obus</tspan></text></g></svg>